<mxfile host="app.diagrams.net" agent="Mozilla/5.0 (Windows NT 10.0; Win64; x64) AppleWebKit/537.36 (KHTML, like Gecko) Chrome/131.0.0.0 Safari/537.36 Edg/131.0.0.0" version="24.8.6">
  <diagram name="Page-1" id="hrzr8VCVliRraegMYzkc">
    <mxGraphModel dx="1042" dy="565" grid="1" gridSize="10" guides="1" tooltips="1" connect="1" arrows="1" fold="1" page="1" pageScale="1" pageWidth="850" pageHeight="1100" math="0" shadow="0">
      <root>
        <mxCell id="0" />
        <mxCell id="1" parent="0" />
        <mxCell id="jDl4DrVw662WiBqbeMNj-8" value="" style="edgeStyle=orthogonalEdgeStyle;rounded=0;orthogonalLoop=1;jettySize=auto;html=1;" edge="1" parent="1" source="jDl4DrVw662WiBqbeMNj-1" target="jDl4DrVw662WiBqbeMNj-2">
          <mxGeometry relative="1" as="geometry" />
        </mxCell>
        <mxCell id="jDl4DrVw662WiBqbeMNj-1" value="Start" style="ellipse;whiteSpace=wrap;html=1;" vertex="1" parent="1">
          <mxGeometry x="350" width="120" height="80" as="geometry" />
        </mxCell>
        <mxCell id="jDl4DrVw662WiBqbeMNj-9" value="" style="edgeStyle=orthogonalEdgeStyle;rounded=0;orthogonalLoop=1;jettySize=auto;html=1;" edge="1" parent="1" source="jDl4DrVw662WiBqbeMNj-2" target="jDl4DrVw662WiBqbeMNj-3">
          <mxGeometry relative="1" as="geometry" />
        </mxCell>
        <mxCell id="jDl4DrVw662WiBqbeMNj-2" value="Nhập số n,3 chữ số(5,6,7)" style="shape=parallelogram;perimeter=parallelogramPerimeter;whiteSpace=wrap;html=1;fixedSize=1;" vertex="1" parent="1">
          <mxGeometry x="325" y="130" width="170" height="60" as="geometry" />
        </mxCell>
        <mxCell id="jDl4DrVw662WiBqbeMNj-10" value="" style="edgeStyle=orthogonalEdgeStyle;rounded=0;orthogonalLoop=1;jettySize=auto;html=1;" edge="1" parent="1" source="jDl4DrVw662WiBqbeMNj-3" target="jDl4DrVw662WiBqbeMNj-4">
          <mxGeometry relative="1" as="geometry" />
        </mxCell>
        <mxCell id="jDl4DrVw662WiBqbeMNj-3" value="Tách các chữ số của n" style="shape=parallelogram;perimeter=parallelogramPerimeter;whiteSpace=wrap;html=1;fixedSize=1;" vertex="1" parent="1">
          <mxGeometry x="330" y="230" width="160" height="60" as="geometry" />
        </mxCell>
        <mxCell id="jDl4DrVw662WiBqbeMNj-11" value="" style="edgeStyle=orthogonalEdgeStyle;rounded=0;orthogonalLoop=1;jettySize=auto;html=1;" edge="1" parent="1" source="jDl4DrVw662WiBqbeMNj-4" target="jDl4DrVw662WiBqbeMNj-5">
          <mxGeometry relative="1" as="geometry" />
        </mxCell>
        <mxCell id="jDl4DrVw662WiBqbeMNj-4" value="Hàng trăm = n //&amp;nbsp;&lt;br&gt;Hàng chục = |n mod 100|/10&lt;div&gt;Hàng đơn vị = n mod 100&lt;/div&gt;" style="rounded=0;whiteSpace=wrap;html=1;" vertex="1" parent="1">
          <mxGeometry x="295" y="320" width="230" height="80" as="geometry" />
        </mxCell>
        <mxCell id="jDl4DrVw662WiBqbeMNj-12" value="" style="edgeStyle=orthogonalEdgeStyle;rounded=0;orthogonalLoop=1;jettySize=auto;html=1;" edge="1" parent="1" source="jDl4DrVw662WiBqbeMNj-5" target="jDl4DrVw662WiBqbeMNj-6">
          <mxGeometry relative="1" as="geometry" />
        </mxCell>
        <mxCell id="jDl4DrVw662WiBqbeMNj-5" value="Đảo ngược =(Đơn vị*100)+(Chục*10)+Trăm" style="rounded=0;whiteSpace=wrap;html=1;" vertex="1" parent="1">
          <mxGeometry x="282.5" y="440" width="255" height="60" as="geometry" />
        </mxCell>
        <mxCell id="jDl4DrVw662WiBqbeMNj-13" value="" style="edgeStyle=orthogonalEdgeStyle;rounded=0;orthogonalLoop=1;jettySize=auto;html=1;" edge="1" parent="1" source="jDl4DrVw662WiBqbeMNj-6" target="jDl4DrVw662WiBqbeMNj-7">
          <mxGeometry relative="1" as="geometry" />
        </mxCell>
        <mxCell id="jDl4DrVw662WiBqbeMNj-6" value="Hiển thị số đảo ngược" style="rounded=0;whiteSpace=wrap;html=1;" vertex="1" parent="1">
          <mxGeometry x="290" y="530" width="240" height="70" as="geometry" />
        </mxCell>
        <mxCell id="jDl4DrVw662WiBqbeMNj-7" value="End" style="ellipse;whiteSpace=wrap;html=1;" vertex="1" parent="1">
          <mxGeometry x="350" y="640" width="120" height="80" as="geometry" />
        </mxCell>
      </root>
    </mxGraphModel>
  </diagram>
</mxfile>
